HIERARCHY
ROOT Hips
{
    OFFSET 0.000000 0.000000 0.000000
    CHANNELS 6 Xposition Yposition Zposition Zrotation Xrotation Yrotation
    JOINT Spine
    {
        OFFSET -0.000002 8.335697 -0.000002
        CHANNELS 3 Zrotation Xrotation Yrotation
        JOINT Spine1
        {
            OFFSET 0.000001 24.027636 0.000014
            CHANNELS 3 Zrotation Xrotation Yrotation
            JOINT Neck
            {
                OFFSET -0.000000 26.824327 -0.000007
                CHANNELS 3 Zrotation Xrotation Yrotation
                JOINT Head
                {
                    OFFSET -0.000001 16.525597 2.035175
                    CHANNELS 3 Zrotation Xrotation Yrotation
                    End Site
                    {
                        OFFSET 0.000000 20.351660 0.000000
                    }
                }
            }
            JOINT LeftShoulder
            {
                OFFSET 4.036567 20.304844 -0.371918
                CHANNELS 3 Zrotation Xrotation Yrotation
                JOINT LeftArm
                {
                    OFFSET 12.502549 0.000004 0.000011
                    CHANNELS 3 Zrotation Xrotation Yrotation
                    JOINT LeftForeArm
                    {
                        OFFSET 31.806904 -0.000006 -0.000010
                        CHANNELS 3 Zrotation Xrotation Yrotation
                        JOINT LeftHand
                        {
                            OFFSET 24.843225 0.000003 -0.000003
                            CHANNELS 3 Zrotation Xrotation Yrotation
                            JOINT LeftHandThumb1
                            {
                                OFFSET 2.126757 -2.416759 3.383461
                                CHANNELS 3 Zrotation Xrotation Yrotation
                                JOINT LeftHandThumb2
                                {
                                    OFFSET 3.212126 -0.000001 -0.000004
                                    CHANNELS 3 Zrotation Xrotation Yrotation
                                    JOINT LeftHandThumb3
                                    {
                                        OFFSET 2.745434 0.000001 0.000000
                                        CHANNELS 3 Zrotation Xrotation Yrotation
                                        End Site
                                        {
                                            OFFSET 2.793713 0.000000 0.000000
                                        }
                                    }
                                }
                            }
                            JOINT LeftHandIndex1
                            {
                                OFFSET 8.700329 0.000001 3.383455
                                CHANNELS 3 Zrotation Xrotation Yrotation
                                JOINT LeftHandIndex2
                                {
                                    OFFSET 4.833525 0.000001 0.000006
                                    CHANNELS 3 Zrotation Xrotation Yrotation
                                    JOINT LeftHandIndex3
                                    {
                                        OFFSET 2.416755 0.000002 -0.000009
                                        CHANNELS 3 Zrotation Xrotation Yrotation
                                        End Site
                                        {
                                            OFFSET 2.459254 0.000000 0.000000
                                        }
                                    }
                                }
                            }
                            JOINT LeftHandMiddle1
                            {
                                OFFSET 8.700341 -0.000002 1.121385
                                CHANNELS 3 Zrotation Xrotation Yrotation
                                JOINT LeftHandMiddle2
                                {
                                    OFFSET 5.316873 -0.000000 0.000008
                                    CHANNELS 3 Zrotation Xrotation Yrotation
                                    JOINT LeftHandMiddle3
                                    {
                                        OFFSET 2.900104 0.000000 -0.000006
                                        CHANNELS 3 Zrotation Xrotation Yrotation
                                        End Site
                                        {
                                            OFFSET 2.951103 0.000000 0.000000
                                        }
                                    }
                                }
                            }
                            JOINT LeftHandRing1
                            {
                                OFFSET 8.216990 -0.000000 -1.121378
                                CHANNELS 3 Zrotation Xrotation Yrotation
                                JOINT LeftHandRing2
                                {
                                    OFFSET 4.833525 -0.000003 0.000005
                                    CHANNELS 3 Zrotation Xrotation Yrotation
                                    JOINT LeftHandRing3
                                    {
                                        OFFSET 2.416755 0.000000 -0.000009
                                        CHANNELS 3 Zrotation Xrotation Yrotation
                                        End Site
                                        {
                                            OFFSET 2.459254 0.000000 0.000000
                                        }
                                    }
                                }
                            }
                            JOINT LeftHandPinky1
                            {
                                OFFSET 7.733631 -0.000001 -3.383462
                                CHANNELS 3 Zrotation Xrotation Yrotation
                                JOINT LeftHandPinky2
                                {
                                    OFFSET 3.866827 -0.000004 0.000000
                                    CHANNELS 3 Zrotation Xrotation Yrotation
                                    JOINT LeftHandPinky3
                                    {
                                        OFFSET 1.933400 0.000000 -0.000000
                                        CHANNELS 3 Zrotation Xrotation Yrotation
                                        End Site
                                        {
                                            OFFSET 1.967405 0.000000 0.000000
                                        }
                                    }
                                }
                            }
                        }
                    }
                }
            }
            JOINT RightShoulder
            {
                OFFSET -4.036570 20.304852 -0.371915
                CHANNELS 3 Zrotation Xrotation Yrotation
                JOINT RightArm
                {
                    OFFSET -12.502551 0.000006 0.000004
                    CHANNELS 3 Zrotation Xrotation Yrotation
                    JOINT RightForeArm
                    {
                        OFFSET -31.806908 -0.000003 0.000005
                        CHANNELS 3 Zrotation Xrotation Yrotation
                        JOINT RightHand
                        {
                            OFFSET -24.843227 0.000002 -0.000003
                            CHANNELS 3 Zrotation Xrotation Yrotation
                            JOINT RightHandThumb1
                            {
                                OFFSET -2.126746 -2.416764 3.383457
                                CHANNELS 3 Zrotation Xrotation Yrotation
                                JOINT RightHandThumb2
                                {
                                    OFFSET -3.212137 -0.000002 0.000000
                                    CHANNELS 3 Zrotation Xrotation Yrotation
                                    JOINT RightHandThumb3
                                    {
                                        OFFSET -2.745448 0.000003 -0.000001
                                        CHANNELS 3 Zrotation Xrotation Yrotation
                                        End Site
                                        {
                                            OFFSET -2.793713 0.000000 0.000000
                                        }
                                    }
                                }
                            }
                            JOINT RightHandIndex1
                            {
                                OFFSET -8.700342 0.000007 3.383466
                                CHANNELS 3 Zrotation Xrotation Yrotation
                                JOINT RightHandIndex2
                                {
                                    OFFSET -4.833519 0.000002 0.000000
                                    CHANNELS 3 Zrotation Xrotation Yrotation
                                    JOINT RightHandIndex3
                                    {
                                        OFFSET -2.416759 0.000001 0.000001
                                        CHANNELS 3 Zrotation Xrotation Yrotation
                                        End Site
                                        {
                                            OFFSET -2.459254 0.000000 0.000000
                                        }
                                    }
                                }
                            }
                            JOINT RightHandMiddle1
                            {
                                OFFSET -8.700332 0.000001 1.121374
                                CHANNELS 3 Zrotation Xrotation Yrotation
                                JOINT RightHandMiddle2
                                {
                                    OFFSET -5.316862 -0.000001 -0.000001
                                    CHANNELS 3 Zrotation Xrotation Yrotation
                                    JOINT RightHandMiddle3
                                    {
                                        OFFSET -2.900102 -0.000002 -0.000001
                                        CHANNELS 3 Zrotation Xrotation Yrotation
                                        End Site
                                        {
                                            OFFSET -2.951103 0.000000 0.000000
                                        }
                                    }
                                }
                            }
                            JOINT RightHandRing1
                            {
                                OFFSET -8.216985 0.000006 -1.121373
                                CHANNELS 3 Zrotation Xrotation Yrotation
                                JOINT RightHandRing2
                                {
                                    OFFSET -4.833519 0.000002 0.000001
                                    CHANNELS 3 Zrotation Xrotation Yrotation
                                    JOINT RightHandRing3
                                    {
                                        OFFSET -2.416759 0.000000 0.000001
                                        CHANNELS 3 Zrotation Xrotation Yrotation
                                        End Site
                                        {
                                            OFFSET -2.459254 0.000000 0.000000
                                        }
                                    }
                                }
                            }
                            JOINT RightHandPinky1
                            {
                                OFFSET -7.733632 0.000004 -3.383462
                                CHANNELS 3 Zrotation Xrotation Yrotation
                                JOINT RightHandPinky2
                                {
                                    OFFSET -3.866814 -0.000003 -0.000004
                                    CHANNELS 3 Zrotation Xrotation Yrotation
                                    JOINT RightHandPinky3
                                    {
                                        OFFSET -1.933417 0.000003 0.000003
                                        CHANNELS 3 Zrotation Xrotation Yrotation
                                        End Site
                                        {
                                            OFFSET -1.967405 0.000000 0.000000
                                        }
                                    }
                                }
                            }
                        }
                    }
                }
            }
        }
    }
    JOINT LeftUpLeg
    {
        OFFSET 10.175828 -0.000002 0.000008
        CHANNELS 3 Zrotation Xrotation Yrotation
        JOINT LeftLeg
        {
            OFFSET 0.000001 -42.882954 0.000001
            CHANNELS 3 Zrotation Xrotation Yrotation
            JOINT LeftFoot
            {
                OFFSET 0.000002 -39.006771 0.000003
                CHANNELS 3 Zrotation Xrotation Yrotation
                JOINT LeftToeBase
                {
                    OFFSET -0.000001 -6.614286 15.263732
                    CHANNELS 3 Zrotation Xrotation Yrotation
                    End Site
                    {
                        OFFSET 0.000000 0.000000 4.070332
                    }
                }
            }
        }
    }
    JOINT RightUpLeg
    {
        OFFSET -10.175828 0.000002 -0.000008
        CHANNELS 3 Zrotation Xrotation Yrotation
        JOINT RightLeg
        {
            OFFSET 0.000004 -42.882942 0.000011
            CHANNELS 3 Zrotation Xrotation Yrotation
            JOINT RightFoot
            {
                OFFSET 0.000001 -39.006771 0.000000
                CHANNELS 3 Zrotation Xrotation Yrotation
                JOINT RightToeBase
                {
                    OFFSET 0.000003 -6.614286 15.263741
                    CHANNELS 3 Zrotation Xrotation Yrotation
                    End Site
                    {
                        OFFSET 0.000000 0.000000 4.070332
                    }
                }
            }
        }
    }
}
MOTION
Frames:    4
Frame Time:    0.002778
-8.931261    94.032455    227.716705    -1.250241    3.604880    -0.070352    -0.139000    3.793559    -0.002425    -0.695001    3.793290    0.034360    8.822285    -6.622139    4.466408    8.822286    -6.622137    4.466408    -4.654240    1.824716    1.742244    -61.716702    20.987635    -7.289107    -22.538664    7.530858    -115.828537    22.691666    8.793619    20.654606    47.448231    38.866432    -34.355042    -34.999992    0.000001    0.000004    -0.000000    0.000000    -0.000000    0.000012    10.000005    0.000004    -0.000000    0.000000    -0.000000    -0.000000    0.000000    -0.000000    -0.000000    0.000000    -0.000000    -0.000000    0.000000    -0.000000    -0.000000    0.000000    -0.000000    -0.000000    0.000000    -0.000000    -0.000000    0.000000    -0.000000    -0.000000    0.000000    -0.000000    0.000028    -9.999987    0.000009    -0.000000    0.000000    -0.000000    -0.000000    0.000000    -0.000000    -6.427721    3.430123    3.041212    70.269783    40.049225    9.983050    -19.118917    -8.957434    74.442558    -10.579220    4.894856    -23.737392    -47.448215    38.866428    34.355034    35.000000    -0.000004    -0.000004    -0.000000    0.000000    -0.000000    -0.000002    10.000002    0.000007    -0.000000    0.000000    -0.000000    -0.000000    0.000000    -0.000000    -0.000000    0.000000    -0.000000    -0.000000    0.000000    -0.000000    -0.000000    0.000000    -0.000000    -0.000000    0.000000    -0.000000    -0.000000    0.000000    -0.000000    -0.000000    0.000000    -0.000000    0.000001    -10.000001    0.000004    -0.000000    0.000000    -0.000000    -0.000000    0.000000    -0.000000    14.369044    -14.233004    -2.598035    0.000002    28.667099    -0.000001    -16.677547    -17.962900    6.708209    0.000001    -0.421775    -0.000002    -2.940060    -6.653721    -3.224702    0.000000    19.465668    0.000000    11.639991    -21.563814    -22.694021    -0.000002    -0.041221    0.000003    
-8.972464    94.043716    227.716965    -1.223080    3.612583    -0.019008    -0.139702    3.789942    0.008829    -0.698511    3.789672    0.045764    8.810672    -6.611165    4.458473    8.810674    -6.611164    4.458475    -4.653708    1.844508    1.756253    -61.758747    21.007830    -7.279973    -22.535219    7.534907    -115.833191    22.685352    8.792239    20.657539    47.448208    38.866428    -34.355030    -34.999996    -0.000003    -0.000001    -0.000000    0.000000    -0.000000    -0.000000    10.000003    -0.000000    -0.000000    0.000000    -0.000000    -0.000000    0.000000    -0.000000    -0.000000    0.000000    -0.000000    -0.000000    0.000000    -0.000000    -0.000000    0.000000    -0.000000    -0.000000    0.000000    -0.000000    -0.000000    0.000000    -0.000000    -0.000000    0.000000    -0.000000    0.000014    -10.000003    0.000001    -0.000000    0.000000    -0.000000    -0.000000    0.000000    -0.000000    -6.445856    3.444913    3.026535    70.255157    40.035259    9.981972    -19.179455    -8.925604    74.410591    -10.600172    4.906372    -23.742931    -47.448219    38.866440    34.355034    34.999996    -0.000002    0.000003    -0.000000    0.000000    -0.000000    -0.000004    9.999996    -0.000006    -0.000000    0.000000    -0.000000    -0.000000    0.000000    -0.000000    -0.000000    0.000000    -0.000000    -0.000000    0.000000    -0.000000    -0.000000    0.000000    -0.000000    -0.000000    0.000000    -0.000000    -0.000000    0.000000    -0.000000    -0.000000    0.000000    -0.000000    0.000000    -10.000000    -0.000000    -0.000000    0.000000    -0.000000    -0.000000    0.000000    -0.000000    14.367243    -14.226898    -2.619689    0.000003    28.587488    -0.000001    -16.681545    -17.869787    6.677640    -0.000000    -0.432817    0.000000    -2.937004    -6.657947    -3.236366    -0.000000    19.472729    0.000000    11.593310    -21.569822    -22.746342    0.000000    -0.037998    -0.000001    
-9.012089    94.054016    227.718018    -1.194848    3.620664    0.032859    -0.140193    3.785333    0.021364    -0.700962    3.785061    0.058385    8.797947    -6.599610    4.455880    8.797947    -6.599608    4.455881    -4.658930    1.859397    1.774171    -61.794621    21.030901    -7.272878    -22.519806    7.539726    -115.839821    22.675371    8.791893    20.665766    47.448208    38.866440    -34.355038    -35.000004    -0.000004    0.000001    -0.000000    0.000000    -0.000000    -0.000000    10.000004    -0.000000    -0.000000    0.000000    -0.000000    -0.000000    0.000000    -0.000000    -0.000000    0.000000    -0.000000    -0.000000    0.000000    -0.000000    -0.000000    0.000000    -0.000000    -0.000000    0.000000    -0.000000    -0.000000    0.000000    -0.000000    -0.000000    0.000000    -0.000000    -0.000000    -10.000010    -0.000003    -0.000000    0.000000    -0.000000    -0.000000    0.000000    -0.000000    -6.465390    3.458384    3.003852    70.253746    39.992588    9.969217    -19.149117    -8.940826    74.431717    -10.593520    4.901344    -23.735569    -47.448193    38.866428    34.355022    34.999996    0.000008    0.000001    -0.000000    0.000000    -0.000000    0.000004    9.999997    -0.000002    -0.000000    0.000000    -0.000000    -0.000000    0.000000    -0.000000    -0.000000    0.000000    -0.000000    -0.000000    0.000000    -0.000000    -0.000000    0.000000    -0.000000    -0.000000    0.000000    -0.000000    -0.000000    0.000000    -0.000000    -0.000000    0.000000    -0.000000    -0.000002    -10.000002    -0.000007    -0.000000    0.000000    -0.000000    -0.000000    0.000000    -0.000000    14.363531    -14.218253    -2.643146    -0.000004    28.503016    0.000002    -16.692667    -17.779125    6.647744    0.000000    -0.447092    -0.000002    -2.936926    -6.660123    -3.246212    0.000000    19.475796    0.000001    11.558317    -21.572336    -22.796099    -0.000000    -0.045092    0.000001    
-9.052011    94.065765    227.719208    -1.165855    3.629787    0.081506    -0.140007    3.781861    0.036822    -0.700034    3.781592    0.073759    8.777565    -6.589453    4.452509    8.777561    -6.589448    4.452506    -4.675145    1.881331    1.792719    -61.824673    21.068981    -7.269168    -22.524408    7.552224    -115.848816    22.677383    8.793948    20.668396    47.448208    38.866428    -34.355030    -34.999996    -0.000000    0.000018    -0.000000    0.000000    -0.000000    0.000002    9.999997    0.000002    -0.000000    0.000000    -0.000000    -0.000000    0.000000    -0.000000    -0.000000    0.000000    -0.000000    -0.000000    0.000000    -0.000000    -0.000000    0.000000    -0.000000    -0.000000    0.000000    -0.000000    -0.000000    0.000000    -0.000000    -0.000000    0.000000    -0.000000    -0.000007    -10.000002    -0.000001    -0.000000    0.000000    -0.000000    -0.000000    0.000000    -0.000000    -6.481879    3.452186    2.982818    70.286842    39.875954    9.928247    -18.879274    -9.079060    74.552574    -10.527669    4.873333    -23.758436    -47.448208    38.866428    34.355030    35.000008    -0.000004    0.000003    -0.000000    0.000000    -0.000000    0.000000    10.000002    0.000005    -0.000000    0.000000    -0.000000    -0.000000    0.000000    -0.000000    -0.000000    0.000000    -0.000000    -0.000000    0.000000    -0.000000    -0.000000    0.000000    -0.000000    -0.000000    0.000000    -0.000000    -0.000000    0.000000    -0.000000    -0.000000    0.000000    -0.000000    0.000006    -10.000003    -0.000001    -0.000000    0.000000    -0.000000    -0.000000    0.000000    -0.000000    14.357554    -14.205360    -2.666056    -0.000003    28.410530    0.000001    -16.694073    -17.687691    6.623880    -0.000000    -0.454575    0.000001    -2.936374    -6.664393    -3.260166    0.000000    19.482571    -0.000000    11.511643    -21.577162    -22.845245    -0.000001    -0.045725    0.000000    
